<svg xmlns="http://www.w3.org/2000/svg" width="22" height="22" viewBox="0 0 22 22" fill="none"><path d="M16 1H6C3.23858 1 1 3.23858 1 6V16C1 18.7614 3.23858 21 6 21H16C18.7614 21 21 18.7614 21 16V6C21 3.23858 18.7614 1 16 1Z" stroke="#989898" stroke-width="2" stroke-linecap="round" stroke-linejoin="round"/><path d="M15 10.3698C15.1234 11.2021 14.9812 12.052 14.5937 12.7988C14.2062 13.5456 13.5931 14.1512 12.8416 14.5295C12.0901 14.9077 11.2384 15.0394 10.4077 14.9057C9.57708 14.7721 8.80971 14.3799 8.21479 13.785C7.61987 13.1901 7.22768 12.4227 7.09402 11.592C6.96035 10.7614 7.09202 9.90971 7.47028 9.15819C7.84854 8.40667 8.45414 7.79355 9.20094 7.40605C9.94773 7.01856 10.7977 6.8764 11.63 6.99981C12.4789 7.1257 13.2648 7.52128 13.8716 8.12812C14.4785 8.73496 14.8741 9.52089 15 10.3698Z" stroke="#989898" stroke-width="2" stroke-linecap="round" stroke-linejoin="round"/><path d="M16.5 5.5H16.51" stroke="#989898" stroke-width="2" stroke-linecap="round" stroke-linejoin="round"/></svg>