<svg xmlns="http://www.w3.org/2000/svg" width="36" height="36" viewBox="0 0 36 36" fill="none"><path d="M1 29.3336V18.0002C1 13.4914 2.79108 9.16738 5.97923 5.97923C9.16738 2.79108 13.4914 1 18.0002 1C22.5089 1 26.8329 2.79108 30.0211 5.97923C33.2092 9.16738 35.0003 13.4914 35.0003 18.0002V29.3336" stroke="#000A12" stroke-width="2" stroke-linecap="round" stroke-linejoin="round"></path><path d="M35.0003 31.2224C35.0003 32.2243 34.6023 33.1852 33.8938 33.8937C33.1853 34.6022 32.2244 35.0002 31.2225 35.0002H29.3336C28.3317 35.0002 27.3708 34.6022 26.6623 33.8937C25.9538 33.1852 25.5558 32.2243 25.5558 31.2224V25.5556C25.5558 24.5537 25.9538 23.5928 26.6623 22.8843C27.3708 22.1759 28.3317 21.7778 29.3336 21.7778H35.0003V31.2224ZM1 31.2224C1 32.2243 1.39802 33.1852 2.1065 33.8937C2.81497 34.6022 3.77587 35.0002 4.77781 35.0002H6.66672C7.66866 35.0002 8.62956 34.6022 9.33804 33.8937C10.0465 33.1852 10.4445 32.2243 10.4445 31.2224V25.5556C10.4445 24.5537 10.0465 23.5928 9.33804 22.8843C8.62956 22.1759 7.66866 21.7778 6.66672 21.7778H1V31.2224Z" stroke="#000A12" stroke-width="2" stroke-linecap="round" stroke-linejoin="round"></path></svg>