<svg xmlns="http://www.w3.org/2000/svg" width="44" height="37" viewBox="0 0 44 37" fill="none"><path d="M29.3333 1H1V25.5556H29.3333V1Z" stroke="black" stroke-width="2" stroke-linecap="round" stroke-linejoin="round"></path><path d="M29.3335 10.4443H36.8891L42.5557 16.111V25.5554H29.3335V10.4443Z" stroke="black" stroke-width="2" stroke-linecap="round" stroke-linejoin="round"></path><path d="M9.50005 35.6227C12.1081 35.6227 14.2223 33.5085 14.2223 30.9004C14.2223 28.2924 12.1081 26.1782 9.50005 26.1782C6.89204 26.1782 4.77783 28.2924 4.77783 30.9004C4.77783 33.5085 6.89204 35.6227 9.50005 35.6227Z" stroke="black" stroke-width="2" stroke-linecap="round" stroke-linejoin="round"></path><path d="M34.0557 35.0001C36.6637 35.0001 38.7779 32.8859 38.7779 30.2779C38.7779 27.6699 36.6637 25.5557 34.0557 25.5557C31.4477 25.5557 29.3335 27.6699 29.3335 30.2779C29.3335 32.8859 31.4477 35.0001 34.0557 35.0001Z" stroke="black" stroke-width="2" stroke-linecap="round" stroke-linejoin="round"></path></svg>