<svg xmlns="http://www.w3.org/2000/svg" width="39" height="37" viewBox="0 0 39 37" fill="none"><path d="M14.4023 35.2991C15.2964 35.2991 16.0213 34.5743 16.0213 33.6801C16.0213 32.7859 15.2964 32.061 14.4023 32.061C13.5081 32.061 12.7832 32.7859 12.7832 33.6801C12.7832 34.5743 13.5081 35.2991 14.4023 35.2991Z" stroke="#000A12" stroke-width="2" stroke-linecap="round" stroke-linejoin="round"></path><path d="M32.2118 35.2991C33.106 35.2991 33.8309 34.5743 33.8309 33.6801C33.8309 32.7859 33.106 32.061 32.2118 32.061C31.3176 32.061 30.5928 32.7859 30.5928 33.6801C30.5928 34.5743 31.3176 35.2991 32.2118 35.2991Z" stroke="#000A12" stroke-width="2" stroke-linecap="round" stroke-linejoin="round"></path><path d="M1.44971 1.29932H7.9259L12.2649 22.9784C12.413 23.7238 12.8185 24.3933 13.4105 24.8699C14.0025 25.3464 14.7432 25.5996 15.503 25.585H31.2402C32 25.5996 32.7407 25.3464 33.3327 24.8699C33.9247 24.3933 34.3302 23.7238 34.4783 22.9784L37.0688 9.39455H9.54495" stroke="#000A12" stroke-width="2" stroke-linecap="round" stroke-linejoin="round"></path></svg>