<svg width="150" height="150" viewBox="0 0 1314 1288" fill="none" xmlns="http://www.w3.org/2000/svg">
<path d="M649.5 1133C649.5 1189.33 603.833 1235 547.5 1235C491.167 1235 445.5 1189.33 445.5 1133C445.5 1076.67 491.167 1031 547.5 1031C603.833 1031 649.5 1076.67 649.5 1133Z" stroke="#EEEEEE" stroke-width="60"/>
<path d="M1095 1133.5C1095 1189.83 1049.33 1235.5 993 1235.5C936.667 1235.5 891 1189.83 891 1133.5C891 1077.17 936.667 1031.5 993 1031.5C1049.33 1031.5 1095 1077.17 1095 1133.5Z" stroke="#EEEEEE" stroke-width="60"/>
<path d="M52 106.5H167C193.667 106.5 252.2 121.3 273 180.5C273 180.5 290.5 228.5 295 250M458.5 738.5C435.667 761.5 402.315 793.994 423.5 855.5C439 900.5 498 924.5 535 924.5L1082.5 921.5M458.5 738.5L1072.5 675.5C1126 668 1171 626 1191.5 530L1249.5 284H961H865.75M458.5 738.5C458.5 738.5 358.851 440.771 295 250M924 51L770.5 284L227 1133.5M295 250C442 296.5 662 284 662 284" stroke="#EEEEEE" stroke-width="60" stroke-linecap="round" stroke-linejoin="round"/>
</svg>