<svg xmlns="http://www.w3.org/2000/svg" width="18" height="18" viewBox="0 0 18 18" fill="none"><path d="M9 17C13.4183 17 17 13.4183 17 9C17 4.58172 13.4183 1 9 1C4.58172 1 1 4.58172 1 9C1 13.4183 4.58172 17 9 17Z" stroke="#000A12" stroke-width="1.5" stroke-linecap="round" stroke-linejoin="round"/><path d="M6.67188 6.59992C6.85996 6.06525 7.2312 5.6144 7.71984 5.32722C8.20848 5.04005 8.78299 4.93507 9.34162 5.03089C9.90024 5.12671 10.4069 5.41714 10.7719 5.85074C11.1369 6.28434 11.3367 6.83314 11.3359 7.39992C11.3359 8.99992 8.93587 9.79992 8.93587 9.79992" stroke="#000A12" stroke-width="1.5" stroke-linecap="round" stroke-linejoin="round"/><path d="M9 13H9.008" stroke="#000A12" stroke-width="1.5" stroke-linecap="round" stroke-linejoin="round"/></svg>