<svg width="14" height="16" viewBox="0 0 14 16" fill="none" xmlns="http://www.w3.org/2000/svg">
<path d="M3.02121 1L1 3.69495V13.1273C1 13.4847 1.14197 13.8274 1.39467 14.0801C1.64737 14.3328 1.9901 14.4748 2.34748 14.4748H11.7798C12.1372 14.4748 12.4799 14.3328 12.7326 14.0801C12.9853 13.8274 13.1273 13.4847 13.1273 13.1273V3.69495L11.1061 1H3.02121Z" stroke="white" stroke-width="1.5" stroke-linecap="round" stroke-linejoin="round"/>
<path d="M3.02121 1L1 3.69495V13.1273C1 13.4847 1.14197 13.8274 1.39467 14.0801C1.64737 14.3328 1.9901 14.4748 2.34748 14.4748H11.7798C12.1372 14.4748 12.4799 14.3328 12.7326 14.0801C12.9853 13.8274 13.1273 13.4847 13.1273 13.1273V3.69495L11.1061 1H3.02121Z" stroke="#2C2A2A" stroke-width="1.5" stroke-linecap="round" stroke-linejoin="round"/>
<path d="M1 3.69482H13.1273" stroke="white" stroke-width="1.5" stroke-linecap="round" stroke-linejoin="round"/>
<path d="M1 3.69482H13.1273" stroke="#2C2A2A" stroke-width="1.5" stroke-linecap="round" stroke-linejoin="round"/>
<path d="M9.75905 6.38965C9.75905 7.10439 9.47511 7.78987 8.96971 8.29527C8.46431 8.80067 7.77884 9.0846 7.06409 9.0846C6.34935 9.0846 5.66388 8.80067 5.15847 8.29527C4.65307 7.78987 4.36914 7.10439 4.36914 6.38965" stroke="white" stroke-width="1.5" stroke-linecap="round" stroke-linejoin="round"/>
<path d="M9.75905 6.38965C9.75905 7.10439 9.47511 7.78987 8.96971 8.29527C8.46431 8.80067 7.77884 9.0846 7.06409 9.0846C6.34935 9.0846 5.66388 8.80067 5.15847 8.29527C4.65307 7.78987 4.36914 7.10439 4.36914 6.38965" stroke="#2C2A2A" stroke-width="1.5" stroke-linecap="round" stroke-linejoin="round"/>
</svg>
