<svg xmlns="http://www.w3.org/2000/svg" width="148" height="39" viewBox="0 0 148 39" fill="none"><path d="M13.7149 16.5316L14.4879 11.7097C14.7989 9.76969 16.4727 8.34277 18.4375 8.34277H34.3514C36.3161 8.34277 37.99 9.76969 38.3009 11.7097L41.7267 33.0812C42.1163 35.5119 40.2388 37.7143 37.7771 37.7143H15.0117C12.55 37.7143 10.6725 35.5119 11.0621 33.0812L11.5236 30.2022" stroke="#724347" stroke-width="2.3"></path><path d="M21.83 13.1058C22.2684 13.1058 22.6238 12.7504 22.6238 12.312C22.6238 11.8736 22.2684 11.5182 21.83 11.5182C21.3915 11.5182 21.0361 11.8736 21.0361 12.312C21.0361 12.7504 21.3915 13.1058 21.83 13.1058Z" fill="#000A12"></path><path d="M31.3563 13.1058C31.7947 13.1058 32.1502 12.7504 32.1502 12.312C32.1502 11.8736 31.7947 11.5182 31.3563 11.5182C30.9179 11.5182 30.5625 11.8736 30.5625 12.312C30.5625 12.7504 30.9179 13.1058 31.3563 13.1058Z" fill="#000A12"></path><path d="M21.8301 12.1136C21.8301 3.5626 28.9745 -7.90062 31.356 12.1136" stroke="#000A12"></path><path d="M22.5136 16.2811H7.4541C6.62567 16.2811 5.9541 16.7288 5.9541 17.2811C5.9541 17.8334 6.62567 18.2811 7.4541 18.2811H22.5136C23.342 18.2811 24.0136 17.8334 24.0136 17.2811C24.0136 16.7288 23.342 16.2811 22.5136 16.2811Z" fill="#333333"></path><path d="M18.5437 28.1885H3.68262C2.85419 28.1885 2.18262 28.6362 2.18262 29.1885C2.18262 29.7408 2.85419 30.1885 3.68262 30.1885H18.5437C19.3721 30.1885 20.0437 29.7408 20.0437 29.1885C20.0437 28.6362 19.3721 28.1885 18.5437 28.1885Z" fill="#333333"></path><path d="M24.1009 22.0364H1.5C0.671573 22.0364 0 22.4841 0 23.0364C0 23.5887 0.671573 24.0364 1.5 24.0364H24.1009C24.9293 24.0364 25.6009 23.5887 25.6009 23.0364C25.6009 22.4841 24.9293 22.0364 24.1009 22.0364Z" fill="#724347"></path><path d="M66.0929 22.7617C66.0929 17.181 62.5501 13.6365 57.6925 13.6365C52.8715 13.6365 49 17.181 49 22.7617C49 28.3424 52.8715 32 57.6925 32C60.9066 32 63.8285 30.4163 65.3259 27.5882L63.3171 26.6833C62.1849 28.6063 60.1031 29.6998 57.7656 29.6998C54.3324 29.6998 51.7758 27.5882 51.374 23.8175H66.0564C66.0929 23.4781 66.0929 23.1011 66.0929 22.7617ZM51.374 21.7436C51.8123 17.9729 54.3324 15.9367 57.6925 15.9367C61.0162 15.9367 63.4632 18.086 63.7919 21.7436H51.374Z" fill="black"></path><path d="M91.0948 13.6365C89.013 13.6365 86.0546 14.3529 84.8128 17.8597C83.8632 15.1448 81.5988 13.6365 78.823 13.6365C76.3029 13.6365 73.8558 14.8431 72.9793 17.181V14.0136H70.6418V31.6229H72.9793V21.8567C73.0523 17.6335 75.682 15.9744 78.4212 15.9744C81.124 15.9744 83.0962 18.0483 83.0962 21.4796V31.6229H85.3972V22.4977L85.4337 22.6486C85.178 18.3499 87.5155 15.9367 90.7296 15.9744C93.5419 15.9744 95.5141 18.086 95.5141 21.4796V31.6229H97.8516V21.3665C97.8516 16.5023 95.2219 13.6365 91.0948 13.6365Z" fill="black"></path><path d="M117.772 14.0136V17.4072C116.494 15.0317 113.864 13.6365 110.979 13.6365C106.194 13.6365 102.323 17.4449 102.323 22.7994C102.323 28.1538 106.231 32 110.979 32C113.827 32 116.494 30.6048 117.772 28.1916V31.6229H120.109V14.0136H117.772ZM111.161 29.6998C107.582 29.6998 104.66 26.6833 104.66 22.7617C104.66 18.8778 107.582 15.9367 111.161 15.9367C114.558 15.9367 117.772 18.6139 117.772 22.8748C117.772 26.9472 114.704 29.6998 111.161 29.6998Z" fill="black"></path><path d="M133.668 13.6365C131.002 13.6365 129.176 15.3333 128.336 18.3122V14.0136H125.962V31.6229H128.336V24.9864C128.336 20.6501 129.578 15.9744 133.632 15.9744C134.253 15.9744 135.056 16.0875 135.933 16.4646L136.371 14.1644C135.713 13.825 134.618 13.6365 133.668 13.6365Z" fill="black"></path><path d="M147 14.0136H143.092V7H140.791V14.0136V16.0875V31.6229H143.092V16.0875H147V14.0136Z" fill="black"></path><path d="M66.0929 22.7617C66.0929 17.181 62.5501 13.6365 57.6925 13.6365C52.8715 13.6365 49 17.181 49 22.7617C49 28.3424 52.8715 32 57.6925 32C60.9066 32 63.8285 30.4163 65.3259 27.5882L63.3171 26.6833C62.1849 28.6063 60.1031 29.6998 57.7656 29.6998C54.3324 29.6998 51.7758 27.5882 51.374 23.8175H66.0564C66.0929 23.4781 66.0929 23.1011 66.0929 22.7617ZM51.374 21.7436C51.8123 17.9729 54.3324 15.9367 57.6925 15.9367C61.0162 15.9367 63.4632 18.086 63.7919 21.7436H51.374Z" stroke="black"></path><path d="M91.0948 13.6365C89.013 13.6365 86.0546 14.3529 84.8128 17.8597C83.8632 15.1448 81.5988 13.6365 78.823 13.6365C76.3029 13.6365 73.8558 14.8431 72.9793 17.181V14.0136H70.6418V31.6229H72.9793V21.8567C73.0523 17.6335 75.682 15.9744 78.4212 15.9744C81.124 15.9744 83.0962 18.0483 83.0962 21.4796V31.6229H85.3972V22.4977L85.4337 22.6486C85.178 18.3499 87.5155 15.9367 90.7296 15.9744C93.5419 15.9744 95.5141 18.086 95.5141 21.4796V31.6229H97.8516V21.3665C97.8516 16.5023 95.2219 13.6365 91.0948 13.6365Z" stroke="black"></path><path d="M117.772 14.0136V17.4072C116.494 15.0317 113.864 13.6365 110.979 13.6365C106.194 13.6365 102.323 17.4449 102.323 22.7994C102.323 28.1538 106.231 32 110.979 32C113.827 32 116.494 30.6048 117.772 28.1916V31.6229H120.109V14.0136H117.772ZM111.161 29.6998C107.582 29.6998 104.66 26.6833 104.66 22.7617C104.66 18.8778 107.582 15.9367 111.161 15.9367C114.558 15.9367 117.772 18.6139 117.772 22.8748C117.772 26.9472 114.704 29.6998 111.161 29.6998Z" stroke="black"></path><path d="M133.668 13.6365C131.002 13.6365 129.176 15.3333 128.336 18.3122V14.0136H125.962V31.6229H128.336V24.9864C128.336 20.6501 129.578 15.9744 133.632 15.9744C134.253 15.9744 135.056 16.0875 135.933 16.4646L136.371 14.1644C135.713 13.825 134.618 13.6365 133.668 13.6365Z" stroke="black"></path><path d="M147 14.0136H143.092V7H140.791V14.0136V16.0875V31.6229H143.092V16.0875H147V14.0136Z" stroke="black"></path></svg>